<?xml version="1.0" encoding="UTF-8"?>
<svg id="Layer_2" data-name="Layer 2" xmlns="http://www.w3.org/2000/svg" viewBox="0 0 382 126.94">
  <defs>
    <style>
      .cls-1 {
        fill: #000;
        stroke-width: 0px;
      }
    </style>
  </defs>
  <g id="Layer_1-2" data-name="Layer 1">
    <g>
      <path class="cls-1" d="M354,51.94c3.86,0,7,3.14,7,7s-3.14,7-7,7-7-3.14-7-7,3.14-7,7-7M354,46.94c-6.63,0-12,5.37-12,12s5.37,12,12,12,12-5.37,12-12-5.37-12-12-12h0Z"/>
      <path class="cls-1" d="M334,92.94c3.86,0,7,3.14,7,7s-3.14,7-7,7-7-3.14-7-7,3.14-7,7-7M334,87.94c-6.63,0-12,5.37-12,12s5.37,12,12,12,12-5.37,12-12-5.37-12-12-12h0Z"/>
      <path class="cls-1" d="M370,39.94c3.86,0,7,3.14,7,7s-3.14,7-7,7-7-3.14-7-7,3.14-7,7-7M370,34.94c-6.63,0-12,5.37-12,12s5.37,12,12,12,12-5.37,12-12-5.37-12-12-12h0Z"/>
      <path class="cls-1" d="M10,35.94c2.76,0,5,2.24,5,5s-2.24,5-5,5-5-2.24-5-5,2.24-5,5-5M10,30.94c-5.52,0-10,4.48-10,10s4.48,10,10,10,10-4.48,10-10-4.48-10-10-10h0Z"/>
      <path class="cls-1" d="M21.5,20.94c1.38,0,2.5,1.12,2.5,2.5s-1.12,2.5-2.5,2.5-2.5-1.12-2.5-2.5,1.12-2.5,2.5-2.5M21.5,15.94c-4.14,0-7.5,3.36-7.5,7.5s3.36,7.5,7.5,7.5,7.5-3.36,7.5-7.5-3.36-7.5-7.5-7.5h0Z"/>
      <path class="cls-1" d="M338.5,31.94c1.38,0,2.5,1.12,2.5,2.5s-1.12,2.5-2.5,2.5-2.5-1.12-2.5-2.5,1.12-2.5,2.5-2.5M338.5,26.94c-4.14,0-7.5,3.36-7.5,7.5s3.36,7.5,7.5,7.5,7.5-3.36,7.5-7.5-3.36-7.5-7.5-7.5h0Z"/>
      <path class="cls-1" d="M26,87.94c-.23,0-.46.02-.68.03-1.64-4.68-6.08-8.03-11.32-8.03-6.63,0-12,5.37-12,12s5.37,12,12,12c.23,0,.46-.02.68-.03,1.64,4.68,6.08,8.03,11.32,8.03,6.63,0,12-5.37,12-12s-5.37-12-12-12ZM14.05,98.94s-.03,0-.05,0c-3.86,0-7-3.14-7-7s3.14-7,7-7c2.92,0,5.43,1.8,6.48,4.35.34.82.52,1.71.52,2.65,0,3.84-3.11,6.97-6.95,7ZM26,106.94c-2.92,0-5.43-1.8-6.48-4.35,3.56-1.85,6.08-5.44,6.43-9.64.02,0,.03,0,.05,0,3.86,0,7,3.14,7,7s-3.14,7-7,7Z"/>
      <path class="cls-1" d="M199.22,57.36c-.76-1.63-2.1-2.88-3.77-3.51-.11-.89-.38-1.74-.78-2.55-.95-1.9-2.58-3.32-4.6-3.99l-1.17-.39c-.77-.26-1.56-.49-2.35-.68-.7-1.03-1.66-1.87-2.77-2.43-3.11-1.55-6.81-1.55-9.92,0-1.12.56-2.07,1.4-2.77,2.43-.79.2-1.58.43-2.35.68l-1.17.39c-.81.27-1.57.67-2.26,1.18-1.72,1.29-2.84,3.23-3.11,5.36-.8.31-1.54.76-2.17,1.34-1.36,1.23-2.15,2.92-2.24,4.76s.54,3.6,1.78,4.95l.35.38c2.04,2.24,4.29,4.3,6.7,6.13v3.28c0,2.62,2.14,4.76,4.76,4.76h14.91c2.62,0,4.76-2.14,4.76-4.76v-3.28c2.41-1.83,4.66-3.9,6.7-6.14l.35-.38c.6-.67,1.07-1.43,1.37-2.28.63-1.72.54-3.59-.23-5.26ZM186.7,74.35c.21-.13.42-.25.67-.41.18-.11.35-.22.53-.34v1.08c0,.9-.73,1.63-1.63,1.63h-2.92l3.35-1.97ZM188.22,69.59l-.15.11c-.19.14-.39.27-.58.41l-.91.61c-.2.13-.4.26-.61.39l-.89.55c-.22.13-.44.26-.67.4l-5.6,3.27-5.61-3.27c-.22-.13-.44-.26-.66-.4l-.9-.56c-.2-.13-.4-.26-.6-.39l-.91-.62c-.19-.13-.38-.27-.57-.4l-.24-.17c-2.57-1.87-4.96-4.01-7.1-6.36l-.35-.38c-1.39-1.53-1.28-3.9.25-5.29.11-.1.23-.2.36-.29.27.87.68,1.68,1.23,2.42l6.81,9.08c.25.33.62.55,1.03.61.42.06.83-.05,1.16-.3.69-.52.83-1.5.31-2.19l-6.81-9.08c-1.6-2.13-1.16-5.16.96-6.76.42-.31.88-.55,1.37-.72l1.17-.39s.07-.02.11-.03c-.06.82.03,1.65.27,2.49l3.92,13.71c.12.4.38.74.75.94.37.2.79.25,1.19.14.67-.19,1.13-.81,1.14-1.5,0-.15-.02-.29-.06-.43l-3.92-13.72c-.54-1.93.36-3.97,2.15-4.87,2.23-1.11,4.89-1.11,7.12,0,1.79.89,2.69,2.94,2.15,4.88l-3.92,13.71c-.04.14-.06.29-.06.43,0,.69.47,1.31,1.14,1.5.83.24,1.7-.25,1.93-1.08l3.92-13.71c.24-.82.33-1.66.27-2.49.04.01.07.02.11.03l1.17.39c1.22.41,2.21,1.27,2.79,2.42.35.69.52,1.43.51,2.17v.11c-.02.47-.1.95-.25,1.4-.16.49-.4.95-.72,1.37l-6.81,9.08c-.25.33-.36.75-.3,1.16.06.41.28.78.61,1.03.69.52,1.67.38,2.19-.31l6.81-9.08c.51-.69.91-1.44,1.18-2.26.02-.05.03-.11.05-.16,1.36.96,1.95,2.72,1.36,4.34-.17.46-.42.88-.75,1.24l-.35.38c-2.14,2.35-4.53,4.49-7.19,6.42ZM170.3,73.96l.71.44c.21.12.41.25.62.37l2.64,1.54h-2.92c-.9,0-1.63-.73-1.63-1.63v-1.08c.18.12.37.24.57.36Z"/>
      <g>
        <path class="cls-1" d="M62.3,56.08c1.15.89,1.74,2.55,1.76,4.64.03,2.1-.42,3.99-1.33,5.7-1.83,3.12-4.04,6.03-6.65,8.78-2.61,2.75-5.08,4.97-7.48,6.66-2.4,1.68-4.38,2.52-5.47,2.16-.93-.3-2.95-2.22-5.87-5.31-2.92-3.09-5.74-6.34-8.44-9.75-2.7-3.41-4.35-5.93-4.53-7.26-.16-1.12.65-2.81,2.18-4.72,1.53-1.9,3.56-3.8,6.07-5.64,2.51-1.84,5.19-3.32,8-4.42,2.81-1.1,5.39-1.53,7.72-1.34.75.07,1.48.2,2.19.37.71.18,1.35.47,1.85.9.78.66,1.08,1.7.91,2.97-.17,1.28-.49,2.62-.94,4.02-.15.5-.28.98-.39,1.45.18-.06.41-.15.67-.24.6-.26,1.4-.52,2.38-.75.98-.23,2.1-.25,3.36-.04,1.25.2,2.72.79,4.03,1.81ZM37.6,59.19c.48.4,1.06,1.02,1.74,1.8.25-.31.55-.79.92-1.34.41-.61.9-1.39,1.37-2.32.47-.92.49-1.74.06-2.1-.21-.18-.58-.25-.95-.22-.37.03-.67.07-.91.11-.72.16-1.46.47-2.22.93-.76.46-1.32.99-1.68,1.6-.02.04-.05.08-.07.12.6.49,1.2.97,1.74,1.42ZM48.44,68.58c.23-.4.5-.9.79-1.5.29-.6.49-1.19.6-1.78.11-.58-.01-1.09-.37-1.4-.26-.24-.63-.36-1.01-.38-.38-.02-.69,0-.91.04-.72.1-1.45.36-2.19.77-.74.42-1.27.93-1.59,1.55-.06.13-.18.36-.16.46.19.96,2.09,2.79,3.12,4.21.07-.01.14-.03.21-.07.5-.21,1-.85,1.5-1.9Z"/>
        <path class="cls-1" d="M78.18,62.33c-1.74.55-3.44.45-4.99-.23-1.54-.68-2.96-1.71-4.25-3.08-1.29-1.37-2.42-2.82-3.38-4.35-.96-1.53-1.74-2.86-2.34-3.96-.3-.54-.56-.99-.76-1.33-.72-1.22-.85-2.55-.37-3.93.48-1.39,1.44-2.53,2.89-3.4.05-.03.11-.06.16-.09,1.57-.83,3.13-1.07,4.66-.73,1.53.34,2.57,1.25,3.06,2.65.74,2.12,1.44,3.84,2.16,5.03.72,1.18,1.44,1.99,2.13,2.42.89.55,1.7.69,2.43.43.73-.26,1.32-.66,1.79-1.19s.74-.95.81-1.25c.27-1.13.2-2.19-.23-3.2-.43-1-.98-1.9-1.66-2.69-.68-.79-1.31-1.39-1.79-1.82-.3-.27-.48-.48-.52-.56-.21-.43-.42-.91-.63-1.46-.21-.55-.28-1.13-.21-1.75.06-.62.36-1.25.89-1.91.53-.65,1.41-1.33,2.63-1.95,2.09-1.08,3.8-1.54,4.96-1.49,1.16.06,1.98.36,2.46.88.48.53.76.97.84,1.32.01.03.03.06.04.09,2.16,5.08,5.29,10.78,6.35,15.36.23.99-.21,2.22-.89,3.07-.68.85-1.45,1.52-2.29,2-1.16.66-2.4.99-3.75.99-1.34,0-2.48-.51-3.39-1.54-.86,2.01-1.9,3.68-3.14,5.04-1.24,1.35-2.47,2.27-3.66,2.64Z"/>
        <path class="cls-1" d="M108.02,26.37c1.83-2.4,4.02-3.99,6.49-4.73,2.47-.74,4.9-.78,7.24-.11,2.34.67,4.27,1.9,5.78,3.67,1.51,1.77,2.36,3.96,2.48,6.43.16,3.2-.4,5.82-1.52,7.73-1.12,1.92-2.57,3.26-4.4,4.06-1.83.8-3.75,1.11-5.82.95-2.07-.16-4.01-.73-5.84-1.72.07.46.06.98-.04,1.56-.1.58-.36,1.18-.78,1.81-1.04,1.33-2.43,2.28-4.17,2.88-1.75.6-3.28.73-4.37.28-.96-.4-1.96-1.53-2.9-3.18-.94-1.65-1.84-3.56-2.68-5.75s-1.61-4.35-2.31-6.45c-.71-2.12-1.35-3.92-1.92-5.28-.23-.55-.48-1.09-.7-1.58-.71-1.53-1.21-2.89-1.41-4.02-.2-1.14.14-2.27,1.06-3.28,1.07-1.17,2.53-2,4.24-2.46,1.7-.46,3.37-.53,5-.2,1.62.33,3.03,1.09,3.75,2.18.93,1.39,1.83,3.99,2.85,7.2ZM110.01,34.45c.35,1.28,1.06,2.1,2,2.39.93.29,1.91.27,2.88-.08,1.45-.53,2.25-1.44,2.36-2.64.11-1.21-.21-2.28-.96-3.21-.75-.93-1.78-1.3-2.85-.97-.69.21-1.34.71-1.88,1.34-.54.64-.94,1.27-1.21,1.9-.27.63-.38,1.06-.33,1.28Z"/>
        <path class="cls-1" d="M146.36,17.22c2.19-2.06,4.59-3.25,7.13-3.57,2.54-.32,4.92.06,7.1,1.11,2.18,1.05,3.87,2.59,5.06,4.59,1.19,2,1.65,4.3,1.36,6.76-.38,3.18-1.36,5.67-2.78,7.37-1.42,1.7-3.07,2.78-4.99,3.26-1.92.48-3.86.46-5.86-.04-2-.51-3.8-1.4-5.43-2.69,0,.47-.1.98-.3,1.53-.2.55-.55,1.1-1.06,1.65-1.24,1.13-2.75,1.84-4.56,2.12-1.8.29-3.32.16-4.31-.48-.88-.56-1.66-1.84-2.31-3.63-.65-1.78-1.2-3.82-1.66-6.13-.46-2.3-.85-4.56-1.19-6.74-.34-2.21-.67-4.09-1-5.52-.14-.58-.28-1.15-.42-1.67-.44-1.63-.7-3.05-.71-4.2-.01-1.15.51-2.21,1.57-3.04,1.24-.97,2.8-1.54,4.54-1.7,1.74-.16,3.38.06,4.91.65,1.53.6,2.78,1.59,3.31,2.79.68,1.53,1.13,4.24,1.59,7.58ZM146.96,25.52c.13,1.32.69,2.25,1.56,2.69.87.44,1.82.59,2.83.41,1.51-.28,2.44-1.03,2.75-2.2.31-1.17.18-2.28-.41-3.32-.58-1.04-1.53-1.58-2.63-1.44-.71.09-1.43.47-2.06,1-.63.54-1.13,1.09-1.5,1.66-.37.57-.55.98-.53,1.2Z"/>
        <path class="cls-1" d="M175.08.64c1.87-.69,4.17-.83,6.85-.38,2.68.45,3.96,5.84,3.83,16.12-.12,10.27-.7,16.13-1.71,17.38-.74.92-1.97,1.5-3.53,1.75s-3.1.11-4.65-.43-2.79-1.55-3.47-2.96c-.61-1.27-.92-3.42-1.01-6.2-.08-2.78-.25-5.73-.5-8.83-.25-3.11-.11-6.45.48-10.02.59-3.57,1.83-5.72,3.7-6.41Z"/>
        <path class="cls-1" d="M218.8,18.2c2.36,2.48,2.59,4.64.86,6.46-1.22,1.17-2.8,1.94-4.75,2.33-1.94.39-3.91.58-5.91.56-2-.02-4.4-.19-7.21-.47.02.03.03.07.05.1.07.25.24.57.49.94.25.37.66.71,1.21,1.02.55.31,1.34.5,2.35.56,1.02.07,2.34-.08,3.99-.41.16-.03.33-.06.51-.11.88-.21,1.84-.35,2.88-.42,1.04-.06,2.06.17,2.98.71.76.44,1.38,1.06,1.84,1.81.46.75.61,1.53.38,2.23-.31.94-1.33,1.72-2.88,2.29-1.56.56-3.39.91-5.5,1.06-2.11.15-4.22.06-6.3-.23-.62-.09-1.57-.28-2.85-.57-1.28-.29-2.65-.8-4.13-1.52-1.48-.72-2.86-1.75-4.14-3.1-1.97-2.29-2.99-4.81-2.97-7.59.02-2.78,1.04-5.37,3.16-7.39,2.16-2.06,5.13-3.28,8.52-3.63s6.73,0,9.94,1.01c3.21,1.02,5.71,2.49,7.48,4.34ZM208.3,19.28c-1.43-.32-2.7-.23-3.68.18-.97.4-1.7.9-2.19,1.47-.49.57-.78.97-.88,1.19,1.7.37,3.12.65,4.22.77,1.59.17,2.8-.02,3.54-.5.74-.49,1.03-1.05.87-1.7-.16-.65-.81-1.15-1.88-1.4Z"/>
        <path class="cls-1" d="M270.01,40.4c-.08,1.46-1.1,2.88-2.78,4.11-1.68,1.23-3.46,1.96-5.35,2.21-3.54.31-7.09.2-10.72-.33-3.63-.53-6.73-1.25-9.35-2.23-2.63-.98-4.33-2.1-4.63-3.19-.26-.94.19-3.68,1.09-7.84.9-4.16,1.96-8.32,3.23-12.49,1.27-4.16,2.37-6.95,3.33-7.87.8-.77,2.57-1.1,4.9-.95,2.33.15,4.92.69,7.75,1.66,2.83.97,5.47,2.29,7.89,3.94,2.43,1.65,4.2,3.5,5.33,5.5.36.66.66,1.32.91,2,.25.68.37,1.37.3,2.02-.1,1.02-.77,1.86-1.9,2.45-1.13.6-2.39,1.11-3.77,1.55-.48.16-.95.34-1.39.52.15.11.34.25.57.4.55.34,1.19.84,1.92,1.5.73.66,1.37,1.57,1.9,2.71.53,1.14.87,2.67.78,4.33ZM253.95,22.12c-.06.62-.24,1.45-.5,2.45.38.02.92-.01,1.57-.03.71-.02,1.6-.08,2.59-.23.99-.15,1.66-.6,1.72-1.16.03-.27-.11-.61-.33-.9-.22-.29-.42-.51-.58-.67-.52-.49-1.17-.91-1.95-1.26-.78-.35-1.51-.5-2.19-.44-.05,0-.09,0-.14,0-.07.77-.13,1.53-.19,2.24ZM252.31,36.35c.45-.04.99-.12,1.63-.23.64-.11,1.22-.29,1.75-.54.53-.25.87-.64.93-1.11.04-.35-.06-.72-.25-1.04-.19-.32-.37-.56-.53-.72-.47-.53-1.07-.97-1.81-1.33-.73-.36-1.43-.49-2.1-.4-.13.03-.38.06-.45.14-.68.73-1.1,3.31-1.68,4.97.05.05.1.09.17.13.44.28,1.22.32,2.33.12Z"/>
        <path class="cls-1" d="M296.67,42.77c1.44-.1,2.93.19,4.26.94,1.7.95,2.74,2.43,3.02,4.16.28,1.73.08,3.59-.61,5.58-.69,1.99-1.63,3.91-2.79,5.76-1.16,1.86-2.32,3.45-3.47,4.78s-2.05,2.23-2.71,2.63c-.91.54-1.95.62-3.04.26-1.09-.36-2.08-.95-3-1.8-.92-.85-1.6-1.76-2.05-2.75-.29-.68-.44-1.3-.43-1.87,0-.57.09-1.05.24-1.43-1.85.47-3.73.53-5.66.18-1.93-.35-3.65-1.1-5.19-2.26-1.54-1.16-2.65-2.75-3.35-4.8-.7-2.04-.77-4.6-.08-7.5.54-2.24,1.71-4.41,3.43-6.38,1.72-1.97,3.72-3.01,5.98-3.08,2.27-.08,4.5.52,6.66,1.79,2.16,1.27,3.98,3.33,5.4,6.15.81-.14,1.93-.26,3.38-.36ZM290.33,48.47c-.53-.59-1.23-1.16-2.09-1.69-.86-.54-1.75-.83-2.65-.89-.54.03-1.14.45-1.8,1.26s-.97,1.71-.96,2.72c.02,1,.78,1.84,2.26,2.46.7.29,1.43.52,2.13.69.71.17,1.39.2,1.88,0,.38-.15.78-.63,1.15-1.32.36-.69.64-1.36.84-2,.03-.23-.21-.64-.74-1.23Z"/>
        <path class="cls-1" d="M333.28,69.24c-.76,1.66-4.39,4.55-10.67,8.92-6.28,4.37-11.65,6.58-16.22,6.69-4.57.11-7.9-1.03-9.99-3.56-1.15-1.39-1.76-2.75-1.82-3.96-.06-1.21.21-2.25.78-3.1.37-.55.9-.97,1.58-1.21.68-.24,1.55-.18,2.58.19,1.03.38,2.25,1.24,3.63,2.6.53.28,1.08.17,1.66-.31.57-.49,1.17-1.22,1.79-2.21-.3-3.92-.42-7.31-.24-10.17.17-2.86.45-5.19.88-6.99.43-1.8.83-3.09,1.2-3.86.4-.83,1.1-1.31,2.13-1.4,1.03-.09,2.13.19,3.31.85,1.18.66,2.23,1.72,2.99,3.12,1.01,1.84,1.44,3.93,1.35,6.06-.08,2.13-.41,4.11-.97,5.94-.55,1.83-1.06,3.26-1.51,4.28-.2.47-.33.8-.39,1.01.2-.2.56-.6,1.08-1.22.84-.99,1.91-2.16,3.24-3.49s2.71-2.44,4.17-3.31c1.46-.87,2.87-1.11,4.06-.64,1.96.77,3.45,1.85,4.36,2.95.91,1.1,1.23,2.05.99,2.83Z"/>
      </g>
      <g>
        <path class="cls-1" d="M123.84,103.57c.38,1.46.11,3.08-.79,4.87-.9,1.79-2.07,3.15-3.49,4.08-2.72,1.61-5.66,2.76-8.82,3.45-3.16.69-5.97.94-8.44.75-2.47-.19-4.03-.79-4.69-1.81-.39-.98-.68-3.6-.85-7.85s-.2-8.55-.07-12.9c.12-4.35.43-7.17.92-8.47.54-.98,1.68-1.73,3.42-2.24,1.74-.51,3.74-.74,6.02-.69,2.27.05,4.49.43,6.66,1.14,2.17.71,3.94,1.79,5.32,3.24.44.48.85.98,1.23,1.51.38.53.65,1.12.81,1.76.21,1.02,0,2.01-.65,2.99-.65.98-1.42,1.92-2.33,2.84-.31.33-.61.66-.89.98.15.05.33.11.54.17.51.12,1.14.34,1.88.69s1.5.94,2.25,1.78c.75.85,1.41,2.07,1.97,3.68ZM106.51,92.07c.1.62.17,1.45.22,2.49.3-.1.69-.27,1.18-.52.56-.23,1.19-.58,1.9-1.05.71-.47,1.03-1.02.98-1.66-.08-.29-.24-.54-.48-.74-.24-.2-.44-.34-.6-.44-.51-.3-1.09-.49-1.76-.58-.66-.09-1.24,0-1.73.26-.03.02-.07.03-.1.05.13.75.26,1.48.39,2.19ZM108.88,106.1c.34-.18.75-.43,1.23-.74.48-.31.89-.67,1.23-1.08.34-.41.48-.86.42-1.35-.08-.36-.24-.66-.48-.9s-.44-.41-.6-.5c-.51-.34-1.1-.57-1.76-.68-.66-.11-1.24-.01-1.73.28-.1.07-.21.16-.32.27,0,1.74-.02,3.49-.05,5.24.05.03.11.06.17.07.43.13,1.06-.07,1.9-.62Z"/>
        <path class="cls-1" d="M143.86,93.86c.94-.8,2.02-1.23,3.24-1.32,1.56.02,2.79.69,3.68,2.01.89,1.32,1.53,3.01,1.91,5.06.38,2.05.57,4.17.58,6.36,0,2.19-.09,4.15-.31,5.89-.21,1.74-.47,2.96-.76,3.67-.44.95-1.14,1.56-2.1,1.82-.96.26-1.97.26-3.03,0-1.06-.26-1.96-.71-2.72-1.35-.51-.44-.88-.92-1.11-1.42-.23-.5-.37-.96-.42-1.37-1.18,1.31-2.58,2.26-4.2,2.85s-3.25.71-4.9.34c-1.65-.36-3.12-1.32-4.4-2.88-1.29-1.56-2.19-3.82-2.69-6.79-.33-2.31-.18-4.72.43-7.22s1.72-4.27,3.31-5.3c1.59-1.03,3.36-1.47,5.32-1.32,1.95.16,3.95,1.13,6,2.92.51-.51,1.23-1.16,2.18-1.96ZM141.66,101.92c-.61-.26-1.32-.43-2.14-.49s-1.57.08-2.24.44c-.38.28-.66.93-.84,1.94-.18,1.02-.07,1.97.32,2.85.39.89,1.26,1.26,2.61,1.13.64-.08,1.25-.22,1.83-.41.58-.19,1.04-.49,1.37-.9.21-.36.31-.93.29-1.71s-.08-1.5-.2-2.15c-.07-.21-.4-.45-1.01-.71Z"/>
        <path class="cls-1" d="M173.67,101.06c1.95,1.1,3.74,2.6,5.37,4.5,1.62,1.9,2.76,3.79,3.42,5.67.66,1.88.51,3.33-.44,4.34-1.38,1.23-2.86,1.63-4.44,1.21-1.58-.43-3.14-1.35-4.66-2.78-1.53-1.43-2.88-3.03-4.06-4.8v1.28c0,.67-.03,1.42-.09,2.23-.06.81-.23,1.59-.53,2.33-.29.74-.78,1.35-1.46,1.85-.68.49-1.64.79-2.87.89-2.12.08-3.64-.25-4.57-1-.93-.75-1.49-1.59-1.69-2.53-.2-.94-.28-1.66-.25-2.15v-.15c.05-7.74.15-15.52.3-23.33.39-1.58,1.07-2.72,2.03-3.42.96-.71,1.92-1.12,2.87-1.23,1.49-.2,2.88.24,4.16,1.32,1.28,1.07,1.94,2.81,1.99,5.2,0,.75,0,2.66.03,5.71.82-1.56,1.72-3.01,2.69-4.36.98-1.34,2-2.39,3.08-3.14,1.07-.75,2.17-1,3.27-.75,1.11.25,2.21,1.17,3.31,2.78.41.67.4,1.51-.04,2.5s-1.09,2.01-1.97,3.05-1.79,1.98-2.73,2.8c-.94.83-1.73,1.42-2.35,1.79-.08.05-.16.1-.25.15-.05.02-.09.03-.12.05Z"/>
        <path class="cls-1" d="M207.59,96.53c2.21,2.07,2.74,4.14,1.58,6.23-.84,1.36-2.04,2.38-3.62,3.06-1.57.68-3.21,1.14-4.9,1.37-1.69.23-3.74.34-6.15.32.02.03.03.07.05.1.08.25.25.54.49.89.25.34.62.64,1.12.9.5.25,1.19.36,2.07.31.88-.05,2-.34,3.36-.89.13-.05.27-.11.42-.17.72-.33,1.52-.6,2.39-.81.87-.21,1.74-.13,2.61.25.71.33,1.31.82,1.81,1.49.5.66.72,1.37.65,2.13-.16,1.02-.88,1.93-2.15,2.73s-2.83,1.42-4.66,1.86c-1.84.44-3.7.61-5.59.53-.56-.02-1.42-.11-2.57-.28-1.16-.17-2.41-.56-3.77-1.17-1.35-.61-2.62-1.55-3.8-2.83-1.82-2.18-2.77-4.66-2.84-7.44-.07-2.78.71-5.29,2.35-7.52,1.77-2.17,4-3.56,6.68-4.2,2.68-.63,5.35-.65,8.01-.05,2.66.6,4.82,1.67,6.47,3.21ZM199.22,99.06c-1.23-.12-2.23.08-2.99.58-.76.5-1.33,1.06-1.69,1.67-.36.62-.57,1.04-.64,1.27,1.44.21,2.63.33,3.57.34,1.36-.03,2.32-.34,2.88-.91s.74-1.17.54-1.8c-.2-.62-.75-1.01-1.67-1.16Z"/>
        <path class="cls-1" d="M232.96,92.62c.94.43,1.76,1.05,2.49,1.87.72.82,1.17,1.7,1.34,2.65s-.09,1.83-.8,2.65c-1.18,1.26-2.19,2.05-3.04,2.35-.85.3-1.61.3-2.3-.01-.69-.31-1.38-.75-2.07-1.33-.33-.25-.67-.5-1.03-.76-.38-.23-.84-.25-1.4-.07-.75.26-1.32.72-1.69,1.38-.37.66-.49,1.38-.36,2.17.21,1.15.43,2.54.65,4.16s.34,3.15.36,4.59c.02,1.44-.17,2.44-.57,3.01-.62.74-1.62,1.25-2.99,1.55-1.37.3-2.75.31-4.15.05-1.39-.26-2.45-.89-3.17-1.87-.54-.9-.89-2.32-1.03-4.26s-.18-4.01-.09-6.23c.09-2.21.22-4.18.39-5.91.17-1.72.3-2.83.38-3.32.23-1.1.85-1.92,1.86-2.46,1.01-.54,2.07-.72,3.17-.54s1.95.8,2.52,1.87c.23.49.47,1.1.71,1.82.61-1.07,1.4-2.01,2.37-2.82.98-.81,2.16-1.31,3.56-1.49s3.02.14,4.87.96Z"/>
        <path class="cls-1" d="M260.91,94.56c.38,1.76-.25,6.32-1.88,13.69-1.63,7.38-4,12.5-7.11,15.37-3.11,2.87-6.11,3.88-9,3.03-1.58-.53-2.68-1.28-3.32-2.25-.64-.98-.95-1.98-.93-3.01,0-.67.19-1.3.57-1.88.38-.58,1.03-1.01,1.94-1.28s2.2-.25,3.84.06c.51-.08.84-.49,1-1.22.16-.73.2-1.68.13-2.84-2.13-3-3.79-5.73-4.98-8.19s-2.03-4.56-2.53-6.3c-.5-1.74-.79-3.03-.87-3.89-.1-.92.16-1.7.79-2.34.62-.64,1.45-1.02,2.49-1.13,1.03-.11,2.12.17,3.25.86,1.46.98,2.65,2.36,3.58,4.12.93,1.76,1.65,3.54,2.18,5.34.52,1.8.89,3.24,1.11,4.32.1.49.18.84.25,1.03.03-.28.07-.82.1-1.62.05-1.3.17-2.88.36-4.74.19-1.86.52-3.58,1-5.17.48-1.58,1.19-2.59,2.14-3.01,1.59-.57,2.92-.73,3.97-.47,1.06.26,1.71.77,1.96,1.53Z"/>
      </g>
    </g>
  </g>
</svg>